<?xml version="1.0" standalone="no"?>
<!DOCTYPE svg PUBLIC "-//W3C//DTD SVG 20010904//EN"
 "http://www.w3.org/TR/2001/REC-SVG-20010904/DTD/svg10.dtd">
<svg version="1.0" xmlns="http://www.w3.org/2000/svg"
 width="1280.000000pt" height="1225.000000pt" viewBox="0 0 1280.000000 1225.000000"
 preserveAspectRatio="xMidYMid meet">
<g transform="translate(0.000000,1225.000000) scale(0.100000,-0.100000)"
fill="#000000" stroke="none">
<path d="M5255 12224 c-100 -35 -102 -38 -80 -123 24 -91 15 -133 -66 -302
l-61 -126 93 -125 c78 -107 132 -193 213 -340 23 -42 54 -37 61 10 17 107 56
169 179 283 l61 56 -69 74 c-116 125 -120 137 -85 264 l20 75 -21 47 c-15 34
-22 66 -21 109 1 68 -7 81 -73 108 -50 21 -67 20 -151 -10z"/>
<path d="M4307 12145 c-94 -16 -198 -47 -292 -86 -92 -39 -326 -169 -331 -184
-3 -7 2 -66 11 -131 32 -225 19 -335 -40 -362 -15 -7 -50 -9 -90 -5 -105 10
-195 -38 -195 -104 0 -34 -70 -105 -170 -172 -110 -73 -177 -105 -265 -125
-79 -19 -260 -104 -293 -139 -39 -41 -46 -153 -15 -212 16 -29 114 -120 223
-206 52 -42 345 -262 650 -490 555 -416 783 -591 851 -656 30 -29 47 -36 107
-45 108 -16 189 -3 283 44 143 71 929 662 929 698 0 4 -47 40 -104 79 -115 78
-173 137 -211 216 -37 75 -42 146 -16 220 26 74 28 191 5 338 -9 56 -17 150
-18 208 -2 102 -3 108 -45 195 -52 109 -102 190 -195 313 -39 52 -76 104 -82
114 -9 16 1 46 58 168 43 92 71 167 75 198 5 45 3 52 -21 74 -32 30 -87 44
-221 57 -143 14 -495 11 -588 -5z"/>
<path d="M3088 11973 c-8 -10 -33 -45 -56 -79 -56 -85 -141 -167 -257 -253
-126 -92 -156 -121 -211 -198 -59 -82 -93 -166 -105 -266 -5 -45 -20 -102 -31
-127 -35 -74 -177 -206 -322 -301 l-128 -84 228 -3 c226 -3 296 1 322 17 7 4
20 39 29 76 13 58 22 75 62 114 58 59 205 135 308 161 100 25 198 75 293 148
61 47 77 65 91 106 23 62 37 77 112 117 49 26 76 33 136 37 42 2 82 9 90 15
11 9 12 40 6 157 -3 80 -11 161 -16 181 -11 44 -28 52 -154 75 -123 22 -231
58 -285 94 -51 34 -90 38 -112 13z"/>
<path d="M5695 11521 c-70 -29 -195 -182 -220 -269 -9 -31 -30 -80 -45 -109
-51 -90 -54 -120 -31 -302 27 -205 27 -276 1 -343 -39 -102 -17 -211 61 -301
23 -27 92 -82 155 -123 62 -41 119 -82 126 -93 31 -44 179 -92 344 -113 82
-10 94 -9 130 8 123 59 346 -28 898 -350 289 -169 376 -216 401 -216 8 0 20
11 27 25 6 14 25 29 43 35 20 6 36 20 40 33 16 54 24 428 24 1139 l1 768 -127
61 c-232 111 -349 145 -440 128 -84 -16 -117 -67 -115 -178 1 -90 -15 -127
-86 -193 -65 -61 -91 -67 -156 -38 -59 27 -218 81 -326 111 -80 22 -106 44
-207 166 -54 65 -109 91 -278 132 -132 31 -184 36 -220 22z"/>
<path d="M7723 11233 c-4 -27 -8 -379 -8 -783 l0 -735 450 -7 c248 -5 551 -11
675 -16 264 -8 246 -13 403 108 72 56 96 81 97 98 0 32 -201 423 -339 660
-136 233 -180 324 -184 377 -3 57 25 58 91 5 49 -38 52 -39 52 -18 0 13 -10
65 -22 117 -20 83 -26 96 -53 113 -96 59 -298 83 -444 53 -107 -22 -183 -16
-476 36 -120 21 -222 39 -226 39 -4 0 -11 -21 -16 -47z"/>
<path d="M1801 10451 c-53 -82 -126 -202 -162 -266 -35 -64 -117 -197 -181
-297 -122 -188 -148 -242 -129 -261 18 -18 107 -26 309 -26 l192 -1 0 75 c0
112 25 156 118 207 62 34 66 50 72 288 l5 215 260 5 260 5 3 103 3 102 -326 0
-326 0 -98 -149z"/>
<path d="M2615 10468 c-17 -125 -24 -128 -313 -128 l-219 0 -7 -197 c-8 -236
-13 -251 -98 -301 -76 -44 -88 -68 -88 -185 0 -59 -4 -97 -12 -105 -9 -9 -81
-12 -262 -12 -265 0 -326 -5 -326 -25 0 -7 16 -46 34 -87 48 -102 74 -203 88
-333 11 -111 9 -134 -29 -291 -4 -20 -2 -20 82 -16 83 4 88 3 161 -32 88 -44
158 -110 234 -220 30 -44 60 -81 65 -83 6 -2 19 14 30 34 47 87 82 92 573 93
l362 0 0 703 c0 391 4 740 10 787 10 91 31 133 69 138 50 8 16 45 -164 179
-66 49 -134 99 -152 111 l-31 22 -7 -52z"/>
<path d="M2945 10139 c-3 -8 -6 -374 -8 -814 l-2 -800 -425 -5 c-463 -6 -478
-8 -506 -63 -27 -51 -20 -91 37 -205 44 -87 54 -117 54 -158 0 -28 6 -58 13
-67 22 -27 94 -31 192 -12 l89 17 48 -23 c56 -28 83 -70 109 -169 26 -100 34
-104 168 -108 181 -6 171 -13 311 200 148 224 223 304 326 352 41 18 99 39
129 46 82 19 148 47 210 90 106 71 174 94 384 130 243 42 339 69 362 105 8 12
19 49 24 81 14 79 13 379 0 404 -6 11 -26 22 -48 26 -52 9 -70 20 -87 53 -37
72 -501 428 -935 718 -247 165 -321 206 -386 211 -39 3 -55 1 -59 -9z"/>
<path d="M5385 9669 c-491 -368 -677 -489 -777 -503 -25 -4 -52 -14 -59 -22
-8 -9 -15 -81 -20 -207 -9 -200 -17 -254 -48 -315 -41 -79 -80 -96 -246 -106
-151 -9 -283 -31 -306 -52 -15 -13 -19 -31 -19 -81 0 -78 18 -123 61 -156 48
-35 364 -227 375 -227 5 0 34 41 64 91 101 166 180 229 290 229 61 0 70 -3
255 -83 185 -80 344 -97 470 -51 130 47 130 47 205 25 96 -29 144 -27 207 9
45 26 56 39 83 97 55 121 92 186 192 340 55 84 108 175 119 203 39 104 49 409
19 575 -16 85 -58 222 -85 275 -35 68 -63 89 -144 106 -39 8 -124 33 -188 54
-65 22 -120 40 -123 40 -3 -1 -149 -109 -325 -241z"/>
<path d="M6231 9824 c-21 -15 -23 -23 -18 -68 3 -28 22 -89 43 -136 20 -47 43
-107 50 -135 21 -78 27 -226 16 -396 -15 -224 -24 -245 -205 -514 -100 -148
-121 -194 -121 -265 1 -63 19 -102 118 -263 124 -200 165 -307 146 -377 -11
-43 -33 -65 -98 -100 -26 -14 -48 -33 -50 -43 -2 -10 19 -52 46 -95 27 -42 61
-101 76 -130 31 -62 51 -72 141 -72 124 0 259 58 401 172 38 31 94 68 124 83
60 30 257 165 412 282 l97 73 -54 112 c-66 140 -80 202 -65 291 27 168 123
349 197 371 36 11 44 63 50 341 5 246 5 261 -13 276 -17 14 -371 219 -651 378
-120 68 -319 162 -413 196 -98 35 -196 43 -229 19z"/>
<path d="M9250 9745 l-115 -97 -711 7 -711 6 -5 -138 c-7 -152 -16 -186 -59
-204 -20 -8 -32 -22 -39 -48 -6 -20 -14 -173 -19 -341 -6 -201 -13 -314 -21
-331 -7 -16 -30 -33 -59 -46 -77 -32 -139 -146 -163 -300 -15 -95 -5 -147 57
-289 26 -59 48 -117 49 -130 1 -12 17 -39 34 -58 44 -51 64 -93 106 -226 41
-133 64 -175 108 -198 54 -29 108 -83 184 -183 40 -53 110 -130 154 -170 88
-80 110 -112 110 -159 0 -62 82 -180 125 -180 12 0 53 12 91 26 87 33 110 28
210 -41 103 -72 127 -79 237 -71 198 15 366 57 408 102 33 36 72 54 113 54 44
0 85 15 92 35 12 29 -6 62 -76 141 -38 43 -84 107 -102 141 -33 66 -52 82
-171 147 -120 66 -124 109 -16 174 34 20 75 49 92 63 28 24 30 30 28 92 -3
113 63 275 199 487 81 126 104 171 120 230 6 25 23 62 37 83 l26 37 -22 56
c-60 157 21 358 203 503 36 29 66 58 66 65 0 7 -12 23 -26 37 -14 13 -47 51
-73 84 -90 114 -117 180 -131 310 -5 51 -19 119 -31 150 -22 59 -94 174 -151
239 l-34 38 -114 -97z"/>
<path d="M9817 8899 c-93 -26 -195 -159 -232 -304 -18 -71 -19 -101 -4 -144
15 -42 43 -52 121 -41 90 14 221 12 310 -4 114 -21 180 -61 327 -200 125 -118
174 -156 187 -143 15 14 -52 91 -198 228 -338 318 -361 345 -399 470 -38 128
-59 153 -112 138z"/>
<path d="M10 8852 c0 -5 9 -17 21 -28 21 -19 21 -19 18 6 -4 23 -39 43 -39 22z"/>
<path d="M1424 8726 c-80 -35 -194 -177 -194 -241 0 -38 27 -99 67 -152 l24
-33 107 1 c140 1 252 -35 252 -81 0 -38 -42 -48 -299 -69 -62 -5 -118 -14
-125 -21 -8 -8 -7 -18 4 -38 21 -37 58 -39 175 -7 115 32 215 34 356 10 172
-30 259 -24 259 19 0 25 -126 239 -218 371 -146 209 -289 293 -408 241z"/>
<path d="M387 8554 c-4 -4 -7 -16 -7 -26 0 -14 6 -19 23 -16 14 2 22 10 22 23
0 20 -25 32 -38 19z"/>
<path d="M3814 8442 c-11 -1 -47 -25 -80 -51 -82 -66 -124 -86 -260 -121 -132
-34 -193 -67 -252 -138 -52 -63 -242 -342 -242 -356 0 -22 105 -115 155 -137
37 -17 70 -23 128 -23 94 -1 107 10 107 88 0 41 5 56 25 75 23 22 36 24 188
32 311 16 403 30 491 78 54 28 106 91 106 126 0 28 -17 42 -115 96 -92 50
-168 117 -197 173 -16 32 -19 50 -14 97 7 60 2 68 -40 61z"/>
<path d="M9699 8346 c-86 -23 -111 -45 -145 -128 -18 -41 -58 -118 -89 -169
-179 -292 -216 -376 -224 -510 -7 -113 -8 -115 -122 -190 -48 -31 -79 -58 -77
-67 2 -7 44 -36 93 -64 99 -54 150 -98 160 -135 3 -14 17 -43 32 -66 38 -62
257 -274 343 -333 115 -79 226 -134 269 -134 20 0 95 20 166 45 140 48 179 53
245 30 66 -23 93 -19 198 35 53 27 143 63 199 79 161 45 188 65 351 252 150
171 201 244 185 260 -5 5 -80 27 -166 49 -177 45 -274 80 -371 134 -86 48
-178 134 -201 188 -27 62 -71 124 -137 195 -32 34 -58 71 -58 81 0 11 16 39
35 63 57 72 52 86 -74 210 -119 117 -187 158 -295 178 -79 14 -259 13 -317 -3z"/>
<path d="M4625 8252 c-57 -27 -134 -115 -183 -211 -46 -91 -50 -116 -25 -164
25 -49 18 -107 -32 -277 -56 -191 -75 -295 -75 -417 0 -119 7 -133 66 -133 70
0 237 -74 302 -133 30 -28 58 -81 73 -140 6 -26 18 -52 25 -58 37 -31 337 -17
374 16 11 10 29 48 40 85 35 117 132 240 228 289 33 17 52 20 100 15 77 -8
146 14 206 67 58 51 93 124 110 229 17 104 65 218 174 412 45 80 82 150 82
155 0 18 -119 192 -139 202 -16 9 -36 5 -105 -24 -99 -41 -122 -42 -202 -14
-71 24 -107 21 -201 -17 -58 -24 -82 -28 -163 -28 -120 0 -215 25 -384 100
-147 65 -209 75 -271 46z"/>
<path d="M1395 8235 c-38 -12 -33 -13 80 -13 110 0 117 1 90 13 -38 18 -118
18 -170 0z"/>
<path d="M1570 8063 c-62 -11 -146 -36 -198 -59 l-57 -26 68 -34 c70 -36 138
-51 181 -40 59 15 156 137 124 157 -13 9 -73 10 -118 2z"/>
<path d="M1765 8000 c-22 -11 -80 -60 -128 -108 l-89 -89 117 -153 117 -152
73 73 c76 75 108 98 138 99 51 1 195 -141 223 -219 12 -31 39 -67 84 -112 44
-43 70 -77 75 -97 6 -28 10 -32 41 -32 42 0 80 18 114 55 22 23 25 37 29 111
3 95 -19 273 -50 392 -21 78 -65 200 -79 215 -4 5 -51 -3 -106 -17 -123 -32
-158 -32 -214 0 -95 54 -270 72 -345 34z"/>
<path d="M4183 7918 c-43 -41 -97 -87 -121 -102 -27 -17 -42 -34 -42 -47 0
-11 18 -74 40 -139 33 -95 43 -143 51 -237 19 -223 31 -312 48 -345 39 -79 77
-14 91 158 12 142 36 259 85 414 20 63 39 138 42 165 4 45 1 56 -35 115 -21
35 -49 70 -60 78 -20 13 -26 9 -99 -60z"/>
<path d="M10451 7965 c-43 -37 -43 -80 2 -123 18 -18 42 -32 54 -32 57 0 108
91 82 146 -12 25 -21 29 -60 32 -38 2 -52 -2 -78 -23z"/>
<path d="M6066 7833 c-128 -230 -161 -307 -176 -416 -21 -144 -101 -262 -218
-319 -61 -30 -74 -33 -148 -31 -75 2 -86 0 -122 -25 -77 -52 -140 -152 -162
-256 -17 -81 -8 -108 56 -188 62 -77 104 -158 104 -204 0 -48 18 -64 90 -74
107 -16 733 -41 769 -30 80 23 141 90 141 157 0 71 50 93 212 93 59 0 118 4
132 10 25 9 26 12 20 62 -5 46 -3 57 17 82 12 16 43 42 68 57 69 44 108 40
254 -28 156 -72 202 -75 383 -21 146 44 239 64 365 78 162 18 244 55 223 100
-5 10 -54 67 -109 126 -55 59 -120 136 -146 173 -28 42 -63 77 -95 97 -117 75
-137 104 -185 267 -35 116 -73 194 -100 202 -32 11 -134 -44 -291 -156 -84
-59 -189 -129 -233 -155 -44 -26 -114 -74 -156 -106 -94 -72 -177 -110 -316
-144 -178 -44 -212 -68 -282 -199 -26 -48 -32 -68 -28 -102 7 -62 135 -315
196 -388 48 -56 62 -87 43 -99 -27 -17 -129 124 -227 314 -54 105 -59 121 -60
180 0 54 5 76 33 130 18 35 49 83 68 106 19 24 34 54 34 68 0 29 -58 143 -130
256 -33 50 -48 83 -44 94 4 10 31 31 60 48 30 16 66 44 80 61 23 28 26 38 21
87 -4 51 -61 200 -76 200 -3 0 -33 -48 -65 -107z"/>
<path d="M11750 7884 c-136 -72 -678 -206 -840 -208 -66 -1 -84 3 -142 32 -41
20 -82 50 -107 78 l-40 46 -27 -27 c-24 -24 -26 -32 -21 -81 7 -67 39 -125
105 -186 77 -72 171 -112 412 -174 162 -42 213 -63 236 -99 17 -25 16 -28 -3
-68 -12 -23 -93 -126 -182 -228 -187 -218 -224 -246 -364 -279 -50 -11 -119
-35 -154 -52 -129 -63 -247 -202 -304 -358 -20 -56 -23 -82 -23 -185 1 -106 6
-135 37 -249 36 -128 38 -158 12 -136 -20 16 -71 144 -86 215 -18 83 -16 255
4 335 9 36 42 115 72 175 31 61 55 113 55 116 0 4 -14 12 -30 19 -46 19 -140
7 -267 -34 -60 -20 -128 -36 -150 -36 -46 0 -199 71 -321 149 -42 27 -89 54
-105 60 -70 27 -277 -60 -277 -116 0 -8 11 -35 24 -61 33 -66 76 -205 82 -271
6 -54 4 -61 -54 -171 -49 -94 -132 -298 -132 -323 0 -4 107 -60 238 -125 364
-182 401 -207 438 -290 31 -70 126 -232 136 -232 4 0 21 29 38 66 41 86 131
203 321 421 85 98 193 224 238 280 95 117 195 212 433 406 180 148 227 197
310 327 107 165 459 850 496 963 12 37 22 93 22 124 0 60 -18 184 -29 195 -3
3 -26 -4 -51 -18z"/>
<path d="M3883 7774 c-6 -16 20 -272 43 -424 25 -162 77 -313 123 -354 19 -18
21 -18 27 -1 10 26 -3 266 -21 385 -31 201 -72 330 -122 383 -30 31 -41 33
-50 11z"/>
<path d="M3403 7734 c18 -115 19 -273 2 -389 -28 -198 -29 -278 -7 -386 25
-121 54 -189 80 -189 38 0 411 135 460 166 30 19 29 68 -2 142 -39 93 -56 174
-66 319 -15 207 -45 316 -96 350 -23 15 -55 18 -202 22 l-174 3 5 -38z"/>
<path d="M2606 7604 c5 -43 9 -126 8 -184 -1 -95 -4 -113 -33 -184 -47 -113
-42 -170 22 -263 68 -99 82 -153 57 -218 -14 -38 -26 -24 -33 39 -6 63 -25
104 -78 166 -50 59 -62 94 -54 152 l7 48 -54 -6 c-71 -8 -90 2 -129 77 -33 62
-73 99 -106 99 -13 0 -23 -14 -35 -47 -19 -53 -107 -169 -123 -162 -5 2 -9 6
-8 9 1 3 27 60 58 126 75 163 77 176 28 241 -52 69 -108 113 -145 113 -63 0
-188 -172 -173 -239 24 -110 454 -521 639 -610 52 -26 175 -61 211 -61 14 0
121 24 238 54 239 61 365 80 422 65 20 -6 40 -8 43 -5 3 4 -5 50 -18 104 -29
115 -31 235 -6 384 23 137 21 209 -4 241 -20 25 -25 26 -108 24 -86 -2 -88 -2
-157 40 -89 53 -124 61 -319 69 l-158 7 8 -79z"/>
<path d="M8010 6753 c-19 -8 -87 -21 -151 -28 -136 -16 -214 -33 -404 -87
-167 -47 -184 -46 -322 16 -167 75 -244 86 -288 41 -21 -20 -25 -34 -25 -87 0
-84 -20 -174 -71 -321 -39 -111 -42 -132 -44 -232 -3 -131 -6 -141 -132 -352
-48 -81 -104 -191 -124 -244 -20 -53 -49 -121 -65 -150 -39 -72 -146 -180
-214 -215 -51 -26 -64 -28 -175 -29 -92 -1 -130 -5 -163 -19 -56 -24 -66 -12
-22 25 49 41 111 58 195 52 100 -7 168 20 249 101 66 64 99 124 143 251 13 38
62 134 108 212 134 224 145 250 145 362 0 110 15 173 75 317 25 59 45 109 45
110 0 9 -251 3 -275 -6 -14 -5 -28 -18 -31 -27 -18 -55 -31 -80 -66 -124 -70
-89 -120 -102 -306 -84 -75 8 -141 10 -145 6 -4 -4 26 -45 67 -90 89 -97 98
-120 68 -172 -12 -21 -22 -46 -22 -56 0 -10 18 -58 40 -108 22 -49 40 -103 40
-120 0 -41 -69 -149 -108 -169 -23 -12 -48 -14 -111 -9 -63 5 -90 2 -125 -11
-58 -22 -73 -41 -78 -103 -4 -40 -12 -60 -36 -88 -18 -20 -32 -40 -32 -46 0
-5 16 -41 35 -79 40 -79 59 -130 105 -275 17 -55 59 -158 93 -230 l62 -130 1
-115 c1 -145 7 -176 56 -328 21 -67 40 -130 41 -140 0 -9 -42 -105 -95 -212
-182 -368 -283 -703 -225 -745 12 -9 69 -15 165 -19 741 -29 914 -44 1122
-101 75 -21 107 -19 325 15 230 36 331 38 418 9 46 -16 88 -21 162 -22 145 0
161 8 352 200 l158 158 175 99 c285 161 335 199 376 278 40 78 49 175 35 377
-14 200 -24 233 -92 298 -96 93 -242 183 -295 183 -11 0 -52 -11 -90 -24 -153
-52 -174 -74 -185 -193 -19 -213 -6 -350 34 -379 214 -150 220 -159 135 -223
-58 -43 -95 -56 -133 -47 -14 4 -72 51 -130 106 -117 111 -143 128 -201 128
-23 0 -84 18 -143 42 -70 28 -123 43 -169 47 -92 7 -102 -3 -112 -98 -7 -76
-24 -122 -57 -151 -30 -27 -89 -48 -135 -48 -24 0 -58 -8 -77 -18 -53 -26 -64
-69 -64 -247 -1 -177 7 -206 91 -332 44 -66 53 -86 43 -96 -25 -25 -145 142
-175 242 -22 75 -22 287 0 362 31 102 67 131 179 144 99 10 105 13 122 53 21
51 30 226 12 238 -7 4 -55 11 -106 14 -108 7 -127 20 -163 102 -32 76 -49 167
-61 338 -7 97 -16 163 -24 176 -19 29 -94 54 -182 61 l-72 6 -18 -33 c-60
-111 -128 -159 -223 -160 -76 0 -124 29 -175 105 -22 33 -53 98 -69 145 -16
47 -33 90 -38 96 -5 7 -86 14 -231 18 -265 8 -352 15 -339 28 5 5 139 12 298
15 l289 6 60 -123 c86 -177 106 -207 152 -220 28 -9 54 -9 97 -1 69 13 83 22
103 73 20 51 75 98 116 99 82 3 183 -18 248 -52 48 -24 56 -50 63 -216 6 -139
36 -315 64 -373 l17 -35 92 3 c86 2 96 1 149 -28 31 -16 71 -30 88 -30 49 0
145 -26 226 -61 45 -19 95 -33 126 -34 71 -3 103 -24 215 -135 56 -55 110
-100 124 -102 27 -6 93 20 113 45 11 13 5 21 -50 58 -129 86 -166 138 -175
247 -6 73 11 264 29 325 25 85 141 168 256 182 44 6 52 10 52 28 0 11 -29 82
-64 156 -75 161 -101 239 -115 343 -6 43 -20 104 -32 135 -33 86 -35 136 -10
172 26 36 26 52 1 93 -24 40 -25 70 -5 129 25 71 76 119 127 119 34 0 36 15 8
95 -35 102 -29 134 54 302 108 216 125 287 87 368 -34 74 -164 175 -225 175
-14 0 -56 -11 -93 -25 -40 -15 -77 -24 -91 -20 -13 3 -58 42 -101 85 -81 85
-92 89 -151 63z"/>
<path d="M8867 6525 c-54 -8 -105 -19 -113 -26 -12 -10 -14 -26 -9 -73 9 -79
-13 -145 -108 -328 -87 -168 -91 -204 -39 -311 19 -37 45 -75 58 -84 23 -15
29 -14 102 15 42 17 106 35 142 41 180 31 213 45 230 98 7 21 45 106 84 188
67 141 71 154 70 215 -1 65 -41 212 -70 258 -14 21 -20 22 -132 21 -64 -1
-161 -7 -215 -14z"/>
<path d="M5189 6484 c-11 -14 -10 -15 11 -12 13 1 25 9 28 16 5 17 -23 15 -39
-4z"/>
<path d="M5456 6250 c-21 -4 -42 -13 -47 -21 -11 -18 -11 -60 0 -78 20 -32
172 -32 192 0 25 40 -1 99 -44 99 -12 0 -31 2 -42 4 -11 2 -37 1 -59 -4z"/>
<path d="M5720 6252 c-37 -6 -50 -21 -50 -56 0 -56 -18 -102 -46 -114 -13 -7
-57 -12 -97 -12 -97 0 -143 -14 -161 -48 -23 -46 -58 -213 -59 -283 -1 -55 4
-77 31 -130 52 -105 224 -289 270 -289 29 0 52 40 52 89 0 63 29 99 108 138
52 25 66 28 152 26 110 -2 132 7 150 63 16 47 7 100 -30 185 -30 67 -39 142
-20 154 17 10 11 68 -10 103 -63 103 -205 189 -290 174z"/>
<path d="M4960 6035 c-10 -12 -9 -16 3 -21 20 -7 37 3 37 22 0 18 -24 18 -40
-1z"/>
<path d="M8920 5709 c-160 -27 -212 -87 -245 -284 -18 -113 -50 -181 -102
-221 -48 -37 -65 -76 -64 -153 0 -159 121 -398 286 -567 119 -122 224 -184
313 -184 24 0 44 -10 77 -41 47 -43 105 -146 105 -185 0 -84 61 -116 235 -122
141 -5 234 10 423 67 70 22 142 42 160 46 40 8 40 14 -14 145 -138 332 -139
337 -154 600 -13 233 -26 287 -100 421 -33 59 -64 118 -69 132 -13 34 -89 81
-300 187 -312 156 -410 184 -551 159z"/>
<path d="M8515 5651 c-51 -23 -66 -41 -75 -93 -10 -54 2 -88 32 -88 35 0 129
47 166 83 39 38 41 69 6 96 -33 26 -76 26 -129 2z"/>
<path d="M8558 5439 c-21 -10 -55 -36 -78 -58 -35 -34 -40 -43 -40 -84 0 -50
17 -97 34 -97 6 0 34 15 62 34 47 32 53 40 69 98 17 66 17 119 0 124 -5 2 -27
-6 -47 -17z"/>
<path d="M12630 4994 c-11 -12 -11 -18 2 -30 14 -14 17 -14 32 1 13 13 14 20
5 31 -15 18 -24 18 -39 -2z"/>
<path d="M9072 4225 c-31 -39 -34 -92 -12 -171 30 -105 22 -272 -22 -438 l-21
-79 29 -26 c17 -14 57 -47 90 -72 73 -56 94 -96 94 -178 0 -134 51 -168 133
-92 l42 40 0 93 c0 85 -3 98 -33 158 -18 36 -57 94 -87 129 -77 91 -81 108
-59 247 15 96 16 127 6 199 -23 173 -101 265 -160 190z"/>
<path d="M10100 4024 c-71 -33 -250 -93 -347 -114 -102 -23 -155 -24 -310 -9
-103 11 -115 10 -132 -6 -35 -31 -54 -172 -30 -218 7 -12 36 -51 65 -87 99
-123 138 -234 116 -332 -22 -93 -96 -172 -174 -184 -27 -5 -40 -1 -66 21 -38
32 -52 77 -52 172 0 89 -16 111 -136 184 l-84 51 -168 -97 c-175 -101 -262
-159 -262 -175 0 -5 10 -12 23 -14 113 -22 150 -33 225 -71 184 -93 272 -199
272 -329 0 -167 -161 -608 -257 -704 l-36 -36 7 -138 c6 -140 29 -378 47 -498
23 -159 23 -153 -6 -188 -33 -40 -71 -42 -141 -7 -117 58 -113 174 10 245 31
17 61 40 67 51 7 14 6 50 -6 127 -9 59 -20 161 -25 227 -5 66 -12 128 -15 137
-19 49 -249 76 -330 39 -78 -35 -268 -206 -327 -293 -9 -14 -41 -39 -70 -56
-57 -32 -128 -102 -128 -127 0 -28 -70 -94 -113 -106 -53 -14 -97 -7 -187 31
-76 33 -137 37 -151 10 -4 -8 -12 -34 -19 -58 -22 -84 -133 -162 -240 -170
-80 -6 -89 7 -100 149 -9 121 -16 152 -33 146 -22 -7 -29 -67 -35 -307 l-7
-245 -99 -49 c-136 -66 -152 -67 -270 -17 -128 55 -184 54 -155 -1 6 -13 31
-52 54 -88 23 -36 50 -88 59 -117 10 -29 43 -94 73 -145 93 -153 95 -160 91
-307 l-3 -129 46 -58 c62 -79 136 -136 169 -130 14 2 99 23 190 45 212 54 302
60 435 33 78 -16 111 -19 148 -12 76 15 204 80 304 156 230 173 561 508 660
668 50 80 104 144 163 191 33 27 63 59 67 73 3 13 -2 53 -12 88 -24 91 -22
162 8 226 38 83 68 111 188 174 135 70 217 141 249 216 19 44 22 65 18 133 -4
71 -11 95 -60 205 -30 69 -58 135 -62 148 -11 33 26 90 175 268 71 85 138 172
149 194 23 45 70 83 180 142 41 22 113 61 160 87 123 67 211 158 275 283 60
121 65 167 36 328 -14 78 -21 156 -21 245 0 71 -4 135 -8 141 -5 6 -22 3 -52
-12z m-1828 -3046 c21 -12 48 -37 60 -56 31 -50 13 -99 -66 -178 -92 -92 -145
-97 -228 -25 -50 45 -78 93 -71 122 9 33 90 116 135 137 57 28 120 28 170 0z"/>
<path d="M8124 925 c-105 -53 -130 -100 -81 -154 59 -65 128 -60 196 14 46 50
58 86 42 121 -22 48 -83 56 -157 19z"/>
<path d="M11506 3678 c-38 -86 -99 -168 -203 -270 -148 -147 -266 -229 -384
-267 -155 -51 -195 -160 -169 -460 15 -184 11 -203 -95 -389 -89 -157 -108
-218 -99 -317 8 -91 32 -238 45 -273 23 -60 137 -142 199 -142 18 0 65 10 104
21 195 58 236 120 341 519 46 174 127 424 269 833 149 429 156 515 59 745 -14
34 -29 62 -33 62 -4 0 -20 -28 -34 -62z"/>
<path d="M10750 3706 c0 -20 27 -40 33 -24 2 7 2 19 -1 26 -6 16 -32 15 -32
-2z"/>
<path d="M8357 3133 c-121 -134 -243 -249 -282 -268 -27 -12 -73 -21 -138 -24
l-97 -6 64 -107 c116 -193 319 -449 407 -514 64 -46 153 -72 281 -81 118 -7
147 3 189 64 90 130 198 468 199 618 0 85 -16 131 -61 180 -53 57 -153 105
-329 155 -80 23 -151 43 -158 46 -8 2 -41 -26 -75 -63z"/>
<path d="M5831 2949 c-46 -9 -77 -30 -86 -59 -8 -25 18 -85 149 -352 186 -379
264 -640 321 -1078 25 -197 67 -326 119 -370 9 -7 47 -13 88 -14 64 -2 84 -8
161 -45 100 -49 115 -49 209 -8 95 42 90 23 104 471 14 437 14 441 92 637 76
190 85 236 91 456 3 105 9 194 12 198 9 8 148 23 369 39 184 13 240 26 240 54
0 22 -192 10 -370 -23 -170 -32 -241 -30 -420 10 -213 48 -289 55 -485 49
-154 -6 -200 -4 -315 14 -177 27 -226 31 -279 21z"/>
<path d="M7665 2797 c-68 -31 -74 -32 -190 -29 -75 2 -160 -4 -226 -14 l-106
-16 -6 -166 c-6 -192 -19 -255 -96 -452 -64 -163 -81 -231 -81 -325 0 -83 6
-102 56 -157 40 -44 64 -121 64 -200 0 -66 12 -98 38 -98 32 0 138 57 165 89
15 18 27 45 27 59 0 15 9 42 20 60 37 61 103 67 218 21 87 -35 146 -40 183
-15 14 9 43 48 65 87 28 51 51 80 84 102 59 40 145 114 308 266 l133 124 -94
96 c-143 146 -251 286 -377 491 -55 90 -74 111 -99 109 -9 -1 -47 -15 -86 -32z"/>
<path d="M12751 2446 c-8 -10 -9 -16 -2 -21 13 -7 51 12 51 25 0 15 -36 12
-49 -4z"/>
<path d="M12473 2304 c-3 -8 -1 -20 5 -26 16 -16 42 -2 42 22 0 24 -38 28 -47
4z"/>
<path d="M8664 1450 c-33 -13 -47 -64 -29 -106 15 -37 67 -74 103 -74 19 0 22
5 22 44 0 53 -14 93 -42 124 -24 24 -24 24 -54 12z"/>
</g>
</svg>
